<?xml version="1.0" encoding="iso-8859-1"?>
<!-- Generator: Adobe Illustrator 19.0.0, SVG Export Plug-In . SVG Version: 6.00 Build 0)  -->
<svg version="1.1" id="Layer_1" xmlns="http://www.w3.org/2000/svg" xmlns:xlink="http://www.w3.org/1999/xlink" x="0px" y="0px"
	 viewBox="0 0 512 512" style="enable-background:new 0 0 512 512;" xml:space="preserve">
<g>
	<g>
		<path d="M426.667,121.905V85.333h-36.571v36.571h-268.19V85.333H85.333v36.571H0v195.048h85.333v109.714h36.571V316.952h268.19
			v109.714h36.571V316.952H512V121.905H426.667z M475.429,280.381H36.571V158.476h438.857V280.381z"/>
	</g>
</g>
<g>
	<g>
		<polygon points="132.969,195.56 122.709,228.212 119.29,218.289 127.136,195.56 115.133,195.56 110.909,210.243 106.752,195.56 
			94.753,195.56 102.462,218.289 99.176,228.212 88.853,195.56 74.704,195.56 93.342,243.163 104.204,243.163 110.909,226.133 
			117.681,243.163 128.542,243.163 147.183,195.56 		"/>
	</g>
</g>
<g>
	<g>
		<polygon points="166.895,231.765 166.895,224.256 184.193,224.256 184.193,213.662 166.895,213.662 166.895,206.958 
			187.143,206.958 187.143,195.56 153.822,195.56 153.822,243.163 187.746,243.163 187.746,231.765 		"/>
	</g>
</g>
<g>
	<g>
		<polygon points="210.274,231.765 210.274,195.56 197.201,195.56 197.201,243.163 231.862,243.163 231.862,231.765 		"/>
	</g>
</g>
<g>
	<g>
		<path d="M270.212,226.132c-0.4,1.074-0.947,1.979-1.64,2.717c-0.692,0.736-1.474,1.341-2.345,1.81
			c-0.874,0.469-1.779,0.803-2.717,1.005c-0.939,0.201-1.854,0.302-2.748,0.302c-1.701,0-3.23-0.346-4.593-1.04
			c-1.364-0.692-2.515-1.62-3.455-2.782c-0.939-1.162-1.652-2.504-2.146-4.024c-0.492-1.519-0.737-3.106-0.737-4.759
			c0-1.475,0.212-2.961,0.638-4.459c0.424-1.497,1.074-2.838,1.946-4.023c0.872-1.184,1.988-2.146,3.352-2.883
			c1.362-0.736,2.983-1.106,4.859-1.106c0.895,0,1.821,0.09,2.783,0.268c0.959,0.179,1.888,0.492,2.781,0.94
			c0.895,0.447,1.712,1.051,2.448,1.81c0.738,0.759,1.331,1.72,1.779,2.882l9.988-7.107c-1.652-3.127-4.167-5.642-7.543-7.543
			c-3.374-1.899-7.364-2.849-11.966-2.849c-3.845,0-7.264,0.692-10.259,2.078c-2.995,1.386-5.543,3.196-7.643,5.431
			c-2.103,2.236-3.7,4.759-4.793,7.576c-1.097,2.816-1.643,5.676-1.643,8.582c0,3.039,0.581,6.034,1.743,8.984
			c1.162,2.95,2.805,5.588,4.929,7.91c2.121,2.325,4.648,4.191,7.576,5.599c2.926,1.408,6.157,2.111,9.688,2.111
			c2.011,0,4.079-0.246,6.203-0.736c2.121-0.491,4.112-1.207,5.967-2.147c1.854-0.939,3.507-2.1,4.962-3.485
			c1.452-1.386,2.536-2.95,3.252-4.695L270.212,226.132z"/>
	</g>
</g>
<g>
	<g>
		<path d="M332.136,210.647c-1.142-2.906-2.762-5.499-4.864-7.779c-2.1-2.28-4.626-4.112-7.576-5.498s-6.235-2.078-9.855-2.078
			c-3.53,0-6.783,0.659-9.755,1.977c-2.973,1.319-5.543,3.084-7.712,5.297s-3.855,4.773-5.061,7.678
			c-1.207,2.906-1.809,5.923-1.809,9.051c0,3.084,0.581,6.079,1.743,8.984c1.162,2.906,2.793,5.488,4.896,7.745
			c2.1,2.259,4.626,4.08,7.576,5.464c2.95,1.386,6.235,2.078,9.855,2.078c3.53,0,6.783-0.671,9.755-2.01
			c2.973-1.342,5.533-3.118,7.679-5.331c2.146-2.211,3.822-4.76,5.029-7.643s1.809-5.889,1.809-9.017
			C333.845,216.525,333.275,213.551,332.136,210.647z M319.931,223.921c-0.427,1.52-1.074,2.872-1.946,4.057
			c-0.872,1.185-2,2.146-3.385,2.883c-1.386,0.736-3.017,1.106-4.893,1.106c-1.879,0-3.5-0.357-4.862-1.073
			c-1.364-0.714-2.493-1.653-3.385-2.817c-0.895-1.162-1.566-2.49-2.011-3.989c-0.447-1.497-0.672-3.05-0.672-4.659
			c0-1.564,0.212-3.095,0.638-4.593c0.424-1.497,1.084-2.838,1.979-4.023c0.892-1.185,2.021-2.135,3.385-2.85
			c1.362-0.714,2.983-1.073,4.859-1.073c1.833,0,3.43,0.346,4.796,1.04c1.362,0.694,2.503,1.609,3.419,2.749
			c0.917,1.141,1.598,2.46,2.046,3.956c0.445,1.498,0.669,3.051,0.669,4.659C320.567,220.86,320.355,222.401,319.931,223.921z"/>
	</g>
</g>
<g>
	<g>
		<polygon points="377.624,195.56 367.3,217.954 357.041,195.56 342.76,195.56 342.76,243.163 355.834,243.163 355.834,218.088 
			363.811,235.721 370.786,235.721 378.764,218.088 378.764,243.163 391.839,243.163 391.839,195.56 		"/>
	</g>
</g>
<g>
	<g>
		<polygon points="416.445,231.765 416.445,224.256 433.743,224.256 433.743,213.662 416.445,213.662 416.445,206.958 
			436.693,206.958 436.693,195.56 403.372,195.56 403.372,243.163 437.296,243.163 437.296,231.765 		"/>
	</g>
</g>
<g>
</g>
<g>
</g>
<g>
</g>
<g>
</g>
<g>
</g>
<g>
</g>
<g>
</g>
<g>
</g>
<g>
</g>
<g>
</g>
<g>
</g>
<g>
</g>
<g>
</g>
<g>
</g>
<g>
</g>
</svg>
